<svg width="30" height="27" viewBox="0 0 30 27" fill="none" xmlns="http://www.w3.org/2000/svg">
<path d="M7.98632 16.4761C7.60834 16.0982 7.87604 15.4519 8.41058 15.4519L29.4 15.4519C29.7314 15.4519 30 15.1832 30 14.8519L30 12.4148C30 12.0835 29.7314 11.8148 29.4 11.8148L8.41058 11.8148C7.87604 11.8148 7.60834 11.1686 7.98632 10.7906L15.7809 2.99602C16.0152 2.76171 16.0152 2.38181 15.7809 2.1475L14.0576 0.424253C13.8233 0.189939 13.4434 0.189939 13.2091 0.424253L1.20208 12.4313C0.538189 13.0952 0.538189 14.1715 1.20208 14.8354L13.0586 26.6919C13.2929 26.9263 13.6728 26.9263 13.9071 26.6919L15.6304 24.9687C15.8647 24.7344 15.8647 24.3545 15.6304 24.1202L7.98632 16.4761Z" fill="#504678"/>
</svg>
