<svg width="24" height="24" viewBox="0 0 24 24" fill="none" xmlns="http://www.w3.org/2000/svg">
<path fill-rule="evenodd" clip-rule="evenodd" d="M10.2614 9.29352C10.7237 9.61052 11 10.135 11 10.6956V21.861C11 22.3438 10.4588 22.6289 10.0607 22.3559L4.7386 18.7065C4.27631 18.3895 4 17.865 4 17.3044V6.12096C4 5.44091 4.40527 4.8263 5.03034 4.55841L10.1636 2.35842C10.5596 2.18874 11 2.47916 11 2.90991V3.48193C11 3.79714 10.8149 4.08297 10.5273 4.21192L6.86141 5.8554C6.43393 6.04706 6.38118 6.6328 6.76755 6.89774L10.2614 9.29352ZM17.3039 12.5866C17.7116 12.5866 17.9151 13.0919 17.627 13.3877L14.6203 16.5015C14.3968 16.7303 14.3968 17.1023 14.6203 17.3311L15.1041 17.8284C15.3276 18.0572 15.6893 18.0572 15.9122 17.8284L20.3196 13.2792C21.2267 12.3485 21.2267 10.8393 20.3202 9.90869L15.7304 5.17158C15.5075 4.94279 15.1458 4.94279 14.9223 5.17158L14.4379 5.66884C14.215 5.89825 14.215 6.26965 14.4379 6.49844L17.6361 9.80886C17.9242 10.1046 17.7201 10.6099 17.313 10.6099H12.5714C12.2555 10.6099 12 10.8728 12 11.1965V12C12 12.3237 12.2555 12.5866 12.5714 12.5866H17.3039ZM6.93282 9.32187C6.53409 9.05605 6 9.34188 6 9.8211V16.7902C6 17.3586 6.28407 17.8894 6.75701 18.2047L8.06718 19.0781C8.46591 19.3439 9 19.0581 9 18.5789V11.6098C9 11.0414 8.71593 10.5106 8.24299 10.1953L6.93282 9.32187Z" fill="#504678"/>
</svg>
