<svg width="28" height="28" viewBox="0 0 28 28" fill="none" xmlns="http://www.w3.org/2000/svg">
<path fill-rule="evenodd" clip-rule="evenodd" d="M19.7692 1.16507C18.3184 0.327443 16.4632 0.824531 15.6256 2.27535L15.2424 2.93897C15.1353 3.12461 14.9372 3.23897 14.7228 3.23897H13.2772C13.0628 3.23897 12.8647 3.12461 12.7576 2.93897L12.3744 2.27535C11.5368 0.824531 9.68163 0.327443 8.23081 1.16507L5.76919 2.58629C4.31837 3.42392 3.82129 5.27908 4.65892 6.7299L5.04205 7.39351C5.14923 7.57915 5.14923 7.80787 5.04205 7.99351L4.31922 9.24549C4.21204 9.43113 4.01397 9.54549 3.79961 9.54549H3.03333C1.35807 9.54549 0 10.9036 0 12.5788V15.4212C0 17.0965 1.35807 18.4546 3.03333 18.4546H3.79961C4.01397 18.4546 4.21204 18.5689 4.31922 18.7546L5.04205 20.0066C5.14923 20.1922 5.14923 20.4209 5.04205 20.6066L4.65892 21.2702C3.82129 22.721 4.31837 24.5762 5.76919 25.4138L8.23081 26.835C9.68163 27.6726 11.5368 27.1755 12.3744 25.7247L12.7576 25.0611C12.8647 24.8755 13.0628 24.7611 13.2772 24.7611H14.7228C14.9372 24.7611 15.1353 24.8755 15.2424 25.0611L15.6256 25.7247C16.4632 27.1755 18.3184 27.6726 19.7692 26.835L22.2308 25.4138C23.6816 24.5762 24.1787 22.721 23.3411 21.2702L22.9579 20.6066C22.8508 20.4209 22.8508 20.1922 22.9579 20.0066L23.6808 18.7546C23.788 18.5689 23.986 18.4546 24.2004 18.4546H24.9667C26.6419 18.4546 28 17.0965 28 15.4212V12.5788C28 10.9036 26.6419 9.54549 24.9667 9.54549H24.2004C23.986 9.54549 23.788 9.43113 23.6808 9.24549L22.9579 7.99351C22.8508 7.80787 22.8508 7.57915 22.9579 7.39351L23.3411 6.7299C24.1787 5.27908 23.6816 3.42392 22.2308 2.58629L19.7692 1.16507ZM12.7287 5.5723H15.2713C15.9799 5.5723 16.6346 5.19428 16.9889 4.58063L17.6463 3.44202C17.8396 3.10721 18.2677 2.9925 18.6025 3.1858L21.0641 4.60701C21.3989 4.80031 21.5137 5.22843 21.3204 5.56323L20.663 6.70184C20.3087 7.31549 20.3087 8.07153 20.663 8.68518L21.9343 10.8872C22.2886 11.5008 22.9433 11.8788 23.6519 11.8788H24.9667C25.3533 11.8788 25.6667 12.1922 25.6667 12.5788V15.4212C25.6667 15.8078 25.3533 16.1212 24.9667 16.1212H23.6519C22.9433 16.1212 22.2886 16.4993 21.9343 17.1129L20.663 19.3149C20.3087 19.9285 20.3087 20.6846 20.663 21.2982L21.3204 22.4368C21.5137 22.7716 21.3989 23.1998 21.0641 23.3931L18.6025 24.8143C18.2677 25.0076 17.8396 24.8929 17.6463 24.5581L16.9889 23.4194C16.6346 22.8058 15.9799 22.4278 15.2713 22.4278H12.7287C12.0201 22.4278 11.3654 22.8058 11.0111 23.4194L10.3537 24.5581C10.1604 24.8929 9.73228 25.0076 9.39747 24.8143L6.93586 23.3931C6.60106 23.1998 6.48634 22.7716 6.67964 22.4368L7.33702 21.2982C7.69131 20.6846 7.69131 19.9285 7.33702 19.3149L6.06571 17.1129C5.71142 16.4993 5.05667 16.1212 4.34809 16.1212H3.03333C2.64673 16.1212 2.33333 15.8078 2.33333 15.4212V12.5788C2.33333 12.1922 2.64673 11.8788 3.03333 11.8788H4.34809C5.05667 11.8788 5.71142 11.5008 6.06571 10.8872L7.33702 8.68518C7.69131 8.07153 7.69131 7.31549 7.33702 6.70184L6.67964 5.56323C6.48634 5.22843 6.60106 4.80031 6.93586 4.60701L9.39747 3.1858C9.73228 2.9925 10.1604 3.10721 10.3537 3.44202L11.0111 4.58063C11.3654 5.19428 12.0201 5.5723 12.7287 5.5723ZM14 17.0915C15.933 17.0915 17.5 15.5245 17.5 13.5915C17.5 11.6585 15.933 10.0915 14 10.0915C12.067 10.0915 10.5 11.6585 10.5 13.5915C10.5 15.5245 12.067 17.0915 14 17.0915ZM8.16667 13.5915C8.16667 16.8132 10.7783 19.4248 14 19.4248C17.2217 19.4248 19.8333 16.8132 19.8333 13.5915C19.8333 10.3699 17.2217 7.75818 14 7.75818C10.7783 7.75818 8.16667 10.3699 8.16667 13.5915Z" fill="#504678"/>
</svg>
