<svg width="30" height="30" viewBox="0 0 30 30" fill="none" xmlns="http://www.w3.org/2000/svg">
<path fill-rule="evenodd" clip-rule="evenodd" d="M8.75 8.75C8.75 12.2018 11.5482 15 15 15C18.4518 15 21.25 12.2018 21.25 8.75C21.25 5.29822 18.4518 2.5 15 2.5C11.5482 2.5 8.75 5.29822 8.75 8.75ZM18.75 8.75C18.75 10.8211 17.0711 12.5 15 12.5C12.9289 12.5 11.25 10.8211 11.25 8.75C11.25 6.67893 12.9289 5 15 5C17.0711 5 18.75 6.67893 18.75 8.75Z" fill="#504678"/>
<path fill-rule="evenodd" clip-rule="evenodd" d="M15 16.25C9.84756 16.25 5.60523 20.1468 5.0594 25.154C5.0511 25.2302 5.04694 25.3068 5.04694 25.3834C5.04694 26.5524 5.99458 27.5 7.16356 27.5L22.8229 27.5C22.866 27.5 22.9091 27.4987 22.9522 27.4961C24.1236 27.4247 25.0154 26.4172 24.944 25.2458C24.9382 25.1507 24.9321 25.0769 24.9257 25.0245C24.3215 20.0798 20.108 16.25 15 16.25ZM21.4376 25L8.55707 25C8.48772 25 8.41871 24.9904 8.35201 24.9714C7.95354 24.8582 7.72232 24.4433 7.83557 24.0449L7.83564 24.0449C7.87439 23.9086 7.91152 23.7914 7.94705 23.6934C8.99245 20.81 11.7557 18.75 15 18.75C18.1755 18.75 20.89 20.7234 21.9841 23.5108C22.0397 23.6526 22.098 23.8305 22.159 24.0446C22.178 24.1114 22.1877 24.1805 22.1877 24.25C22.1877 24.6642 21.8519 25 21.4376 25Z" fill="#504678"/>
</svg>
